<svg xmlns="http://www.w3.org/2000/svg" xmlns:svg="http://www.w3.org/2000/svg" id="svg1277" version="1.1" viewBox="0 0 90 90"><metadata id="metadata1283"/><linearGradient id="a" x1="143.917" x2="125.854" y1="2125.439" y2="2157.331" gradientTransform="matrix(1,0,0,-1,-67.09799,2219.995)" gradientUnits="userSpaceOnUse"><stop id="stop1061" offset="0" stop-color="#FB7655"/><stop id="stop1063" offset="0" stop-color="#FB7655"/><stop id="stop1065" offset=".41" stop-color="#E42B1E"/><stop id="stop1067" offset=".99" stop-color="#900"/><stop id="stop1069" offset="1" stop-color="#900"/></linearGradient><path style="fill:url(#a)" id="path1072" fill="url(#a)" d="m 67.92601,57.761975 -48.886,29.028 63.3,-4.294 4.875,-63.828 z"/><linearGradient id="b" x1="152.913" x2="129.634" y1="2152.229" y2="2167.85" gradientTransform="matrix(1,0,0,-1,-67.09799,2219.995)" gradientUnits="userSpaceOnUse"><stop id="stop1074" offset="0" stop-color="#871101"/><stop id="stop1076" offset="0" stop-color="#871101"/><stop id="stop1078" offset=".99" stop-color="#911209"/><stop id="stop1080" offset="1" stop-color="#911209"/></linearGradient><path style="fill:url(#b)" id="path1083" fill="url(#b)" d="m 82.44301,82.451975 -5.441,-37.552 -14.818,19.57 z"/><linearGradient id="c" x1="134.287" x2="111.008" y1="2124.472" y2="2140.093" gradientTransform="matrix(1,0,0,-1,-67.09799,2219.995)" gradientUnits="userSpaceOnUse"><stop id="stop1085" offset="0" stop-color="#871101"/><stop id="stop1087" offset="0" stop-color="#871101"/><stop id="stop1089" offset=".99" stop-color="#911209"/><stop id="stop1091" offset="1" stop-color="#911209"/></linearGradient><path style="fill:url(#c)" id="path1094" fill="url(#c)" d="m 82.51601,82.451975 -39.858,-3.129 -23.405,7.385 z"/><linearGradient id="d" x1="85.411" x2="89.02" y1="2163.54" y2="2140.086" gradientTransform="matrix(1,0,0,-1,-67.09799,2219.995)" gradientUnits="userSpaceOnUse"><stop id="stop1096" offset="0" stop-color="#fff"/><stop id="stop1098" offset="0" stop-color="#fff"/><stop id="stop1100" offset=".23" stop-color="#E57252"/><stop id="stop1102" offset=".46" stop-color="#DE3B20"/><stop id="stop1104" offset=".99" stop-color="#A60003"/><stop id="stop1106" offset="1" stop-color="#A60003"/></linearGradient><path style="fill:url(#d)" id="path1109" fill="url(#d)" d="m 19.30801,86.716975 9.957,-32.62 -21.9099999,4.686 z"/><linearGradient id="e" x1="110.233" x2="111.563" y1="2185.439" y2="2161.502" gradientTransform="matrix(1,0,0,-1,-67.09799,2219.995)" gradientUnits="userSpaceOnUse"><stop id="stop1111" offset="0" stop-color="#fff"/><stop id="stop1113" offset="0" stop-color="#fff"/><stop id="stop1115" offset=".23" stop-color="#E4714E"/><stop id="stop1117" offset=".56" stop-color="#BE1A0D"/><stop id="stop1119" offset=".99" stop-color="#A80D00"/><stop id="stop1121" offset="1" stop-color="#A80D00"/></linearGradient><path style="fill:url(#e)" id="path1124" fill="url(#e)" d="m 62.17901,64.576975 -9.162,-35.887 -26.219,24.577 z"/><linearGradient id="f" x1="132.261" x2="136.242" y1="2207.563" y2="2190.407" gradientTransform="matrix(1,0,0,-1,-67.09799,2219.995)" gradientUnits="userSpaceOnUse"><stop id="stop1126" offset="0" stop-color="#fff"/><stop id="stop1128" offset="0" stop-color="#fff"/><stop id="stop1130" offset=".18" stop-color="#E46342"/><stop id="stop1132" offset=".4" stop-color="#C82410"/><stop id="stop1134" offset=".99" stop-color="#A80D00"/><stop id="stop1136" offset="1" stop-color="#A80D00"/></linearGradient><path style="fill:url(#f)" id="path1139" fill="url(#f)" d="M 85.13601,29.195975 60.35101,8.9529749 53.45001,31.265975 Z"/><linearGradient id="g" x1="120.105" x2="137.258" y1="2213.604" y2="2222.18" gradientTransform="matrix(1,0,0,-1,-67.09799,2219.995)" gradientUnits="userSpaceOnUse"><stop id="stop1141" offset="0" stop-color="#fff"/><stop id="stop1143" offset="0" stop-color="#fff"/><stop id="stop1145" offset=".54" stop-color="#C81F11"/><stop id="stop1147" offset=".99" stop-color="#BF0905"/><stop id="stop1149" offset="1" stop-color="#BF0905"/></linearGradient><path style="fill:url(#g)" id="path1152" fill="url(#g)" d="m 73.54401,1.7359749 -14.576,8.056 -9.197,-8.164 z"/><linearGradient id="h" x1="70.375" x2="71.787" y1="2169.518" y2="2155.382" gradientTransform="matrix(1,0,0,-1,-67.09799,2219.995)" gradientUnits="userSpaceOnUse"><stop id="stop1154" offset="0" stop-color="#fff"/><stop id="stop1156" offset="0" stop-color="#fff"/><stop id="stop1158" offset=".31" stop-color="#DE4024"/><stop id="stop1160" offset=".99" stop-color="#BF190B"/><stop id="stop1162" offset="1" stop-color="#BF190B"/></linearGradient><path style="fill:url(#h)" id="path1165" fill="url(#h)" d="m 1.5900101,69.724975 6.107,-11.137 -4.941,-13.267 z"/><path id="path1167" fill="#fff" d="m 2.4280101,44.899975 4.97,14.098 21.5949999,-4.845 24.655,-22.913 6.958,-22.1000001 -10.955,-7.737 -18.627,6.971 c -5.868,5.4580001 -17.256,16.2580001 -17.667,16.4610001 -0.406,0.208 -7.5189999,13.653 -10.9289999,20.065 z"/><linearGradient id="i" x1="60.669" x2="127.036" y1="2151.563" y2="2219.806" gradientTransform="matrix(1,0,0,-1,-67.09799,2219.995)" gradientUnits="userSpaceOnUse"><stop id="stop1169" offset="0" stop-color="#BD0012"/><stop id="stop1171" offset="0" stop-color="#BD0012"/><stop id="stop1173" offset=".07" stop-color="#fff"/><stop id="stop1175" offset=".17" stop-color="#fff"/><stop id="stop1177" offset=".27" stop-color="#C82F1C"/><stop id="stop1179" offset=".33" stop-color="#820C01"/><stop id="stop1181" offset=".46" stop-color="#A31601"/><stop id="stop1183" offset=".72" stop-color="#B31301"/><stop id="stop1185" offset=".99" stop-color="#E82609"/><stop id="stop1187" offset="1" stop-color="#E82609"/></linearGradient><path style="fill:url(#i)" id="path1190" fill="url(#i)" d="m 19.87901,19.575975 c 12.719,-12.6110001 29.115,-20.06100013 35.407,-13.7120001 6.289,6.3480001 -0.38,21.7760001 -13.099,34.3820001 -12.718,12.607 -28.912,20.468 -35.1989999,14.119 -6.29400005,-6.344 0.173,-22.183 12.8909999,-34.789 z"/><linearGradient id="j" x1="111.505" x2="91.514" y1="2144.677" y2="2149.611" gradientTransform="matrix(1,0,0,-1,-67.09799,2219.995)" gradientUnits="userSpaceOnUse"><stop id="stop1192" offset="0" stop-color="#8C0C01"/><stop id="stop1194" offset="0" stop-color="#8C0C01"/><stop id="stop1196" offset=".54" stop-color="#990C00"/><stop id="stop1198" offset=".99" stop-color="#A80D0E"/><stop id="stop1200" offset="1" stop-color="#A80D0E"/></linearGradient><path style="fill:url(#j)" id="path1203" fill="url(#j)" d="m 19.30801,86.703975 9.879,-32.724 32.811,10.541 c -11.864,11.125 -25.058,20.528 -42.69,22.183 z"/><linearGradient id="k" x1="145.839" x2="128.08" y1="2168.67" y2="2184.586" gradientTransform="matrix(1,0,0,-1,-67.09799,2219.995)" gradientUnits="userSpaceOnUse"><stop id="stop1205" offset="0" stop-color="#7E110B"/><stop id="stop1207" offset="0" stop-color="#7E110B"/><stop id="stop1209" offset=".99" stop-color="#9E0C00"/><stop id="stop1211" offset="1" stop-color="#9E0C00"/></linearGradient><path style="fill:url(#k)" id="path1214" fill="url(#k)" d="m 53.69101,31.175975 8.423,33.363 c 9.91,-10.419 18.804,-21.621 23.159,-35.476 z"/><linearGradient id="l" x1="152.364" x2="143.518" y1="2197.874" y2="2207.331" gradientTransform="matrix(1,0,0,-1,-67.09799,2219.995)" gradientUnits="userSpaceOnUse"><stop id="stop1216" offset="0" stop-color="#79130D"/><stop id="stop1218" offset="0" stop-color="#79130D"/><stop id="stop1220" offset=".99" stop-color="#9E120B"/><stop id="stop1222" offset="1" stop-color="#9E120B"/></linearGradient><path style="fill:url(#l)" id="path1225" fill="url(#l)" d="m 85.18701,29.230975 c 3.371,-10.174 4.148,-24.7680001 -11.746,-27.4770001 l -13.043,7.204 z"/><path id="path1227" fill="#9E1209" d="m 1.5900101,69.577975 c 0.467,16.789 12.5809999,17.04 17.7409999,17.188 l -11.9199999,-27.837 z"/><radialGradient id="m" cx="130.847" cy="2184.281" r="21.762" gradientTransform="matrix(1,0,0,-1,-67.09799,2219.995)" gradientUnits="userSpaceOnUse"><stop id="stop1229" offset="0" stop-color="#A80D00"/><stop id="stop1231" offset="0" stop-color="#A80D00"/><stop id="stop1233" offset=".99" stop-color="#7E0E08"/><stop id="stop1235" offset="1" stop-color="#7E0E08"/></radialGradient><path style="fill:url(#m)" id="path1238" fill="url(#m)" d="m 53.73901,31.226975 c 7.615,4.68 22.96,14.08 23.271,14.253 0.484,0.272 6.617,-10.342 8.008,-16.34 z"/><radialGradient id="n" cx="100.707" cy="2155.602" r="28.932" gradientTransform="matrix(1,0,0,-1,-67.09799,2219.995)" gradientUnits="userSpaceOnUse"><stop id="stop1240" offset="0" stop-color="#A30C00"/><stop id="stop1242" offset="0" stop-color="#A30C00"/><stop id="stop1244" offset=".99" stop-color="#800E08"/><stop id="stop1246" offset="1" stop-color="#800E08"/></radialGradient><path style="fill:url(#n)" id="path1249" fill="url(#n)" d="m 29.17401,53.980975 13.207,25.48 c 7.81,-4.235 13.924,-9.395 19.526,-14.922 z"/><linearGradient id="o" x1="80.214" x2="73.005" y1="2133.309" y2="2157.766" gradientTransform="matrix(1,0,0,-1,-67.09799,2219.995)" gradientUnits="userSpaceOnUse"><stop id="stop1251" offset="0" stop-color="#8B2114"/><stop id="stop1253" offset="0" stop-color="#8B2114"/><stop id="stop1255" offset=".43" stop-color="#9E100A"/><stop id="stop1257" offset=".99" stop-color="#B3100C"/><stop id="stop1259" offset="1" stop-color="#B3100C"/></linearGradient><path style="fill:url(#o)" id="path1262" fill="url(#o)" d="m 7.3590101,58.963975 -1.872,22.282 c 3.532,4.823 8.3889999,5.241 13.4849999,4.866 -3.687,-9.175 -11.0509999,-27.521 -11.6129999,-27.148 z"/><linearGradient id="p" x1="135.518" x2="151.68" y1="2214.356" y2="2207.222" gradientTransform="matrix(1,0,0,-1,-67.09799,2219.995)" gradientUnits="userSpaceOnUse"><stop id="stop1264" offset="0" stop-color="#B31000"/><stop id="stop1266" offset="0" stop-color="#B31000"/><stop id="stop1268" offset=".44" stop-color="#910F08"/><stop id="stop1270" offset=".99" stop-color="#791C12"/><stop id="stop1272" offset="1" stop-color="#791C12"/></linearGradient><path style="fill:url(#p)" id="path1275" fill="url(#p)" d="m 60.32101,9.0149749 26.237,3.6830001 c -1.401,-5.9350001 -5.701,-9.7630001 -13.03,-10.9610001 z"/></svg>